<svg width="46" height="46" viewBox="0 0 46 46" fill="none" xmlns="http://www.w3.org/2000/svg">
<path d="M41.6875 21.5625H40.1889C39.844 17.5006 38.0737 13.6915 35.1911 10.8089C32.3085 7.92635 28.4994 6.15604 24.4375 5.81109V4.3125C24.4375 3.93125 24.2861 3.56562 24.0165 3.29603C23.7469 3.02645 23.3812 2.875 23 2.875C22.6188 2.875 22.2531 3.02645 21.9835 3.29603C21.714 3.56562 21.5625 3.93125 21.5625 4.3125V5.81109C17.5006 6.15604 13.6915 7.92635 10.8089 10.8089C7.92635 13.6915 6.15604 17.5006 5.81109 21.5625H4.3125C3.93125 21.5625 3.56562 21.714 3.29603 21.9835C3.02645 22.2531 2.875 22.6188 2.875 23C2.875 23.3812 3.02645 23.7469 3.29603 24.0165C3.56562 24.2861 3.93125 24.4375 4.3125 24.4375H5.81109C6.15604 28.4994 7.92635 32.3085 10.8089 35.1911C13.6915 38.0737 17.5006 39.844 21.5625 40.1889V41.6875C21.5625 42.0687 21.714 42.4344 21.9835 42.704C22.2531 42.9735 22.6188 43.125 23 43.125C23.3812 43.125 23.7469 42.9735 24.0165 42.704C24.2861 42.4344 24.4375 42.0687 24.4375 41.6875V40.1889C28.4994 39.844 32.3085 38.0737 35.1911 35.1911C38.0737 32.3085 39.844 28.4994 40.1889 24.4375H41.6875C42.0687 24.4375 42.4344 24.2861 42.704 24.0165C42.9735 23.7469 43.125 23.3812 43.125 23C43.125 22.6188 42.9735 22.2531 42.704 21.9835C42.4344 21.714 42.0687 21.5625 41.6875 21.5625ZM35.9375 24.4375H37.3031C36.9667 27.735 35.5031 30.8155 33.1593 33.1593C30.8155 35.5031 27.735 36.9667 24.4375 37.3031V35.9375C24.4375 35.5563 24.2861 35.1906 24.0165 34.921C23.7469 34.6514 23.3812 34.5 23 34.5C22.6188 34.5 22.2531 34.6514 21.9835 34.921C21.714 35.1906 21.5625 35.5563 21.5625 35.9375V37.3031C18.265 36.9667 15.1845 35.5031 12.8407 33.1593C10.4969 30.8155 9.03334 27.735 8.69688 24.4375H10.0625C10.4437 24.4375 10.8094 24.2861 11.079 24.0165C11.3485 23.7469 11.5 23.3812 11.5 23C11.5 22.6188 11.3485 22.2531 11.079 21.9835C10.8094 21.714 10.4437 21.5625 10.0625 21.5625H8.69688C9.03334 18.265 10.4969 15.1845 12.8407 12.8407C15.1845 10.4969 18.265 9.03334 21.5625 8.69688V10.0625C21.5625 10.4437 21.714 10.8094 21.9835 11.079C22.2531 11.3485 22.6188 11.5 23 11.5C23.3812 11.5 23.7469 11.3485 24.0165 11.079C24.2861 10.8094 24.4375 10.4437 24.4375 10.0625V8.69688C27.735 9.03334 30.8155 10.4969 33.1593 12.8407C35.5031 15.1845 36.9667 18.265 37.3031 21.5625H35.9375C35.5563 21.5625 35.1906 21.714 34.921 21.9835C34.6514 22.2531 34.5 22.6188 34.5 23C34.5 23.3812 34.6514 23.7469 34.921 24.0165C35.1906 24.2861 35.5563 24.4375 35.9375 24.4375ZM30.1875 23C30.1875 24.4216 29.766 25.8112 28.9762 26.9932C28.1864 28.1751 27.0639 29.0964 25.7505 29.6404C24.4372 30.1844 22.992 30.3267 21.5978 30.0494C20.2036 29.7721 18.9229 29.0875 17.9177 28.0823C16.9125 27.0771 16.2279 25.7965 15.9506 24.4022C15.6733 23.008 15.8156 21.5628 16.3596 20.2495C16.9036 18.9361 17.8249 17.8136 19.0068 17.0238C20.1888 16.234 21.5784 15.8125 23 15.8125C24.9062 15.8125 26.7344 16.5698 28.0823 17.9177C29.4302 19.2656 30.1875 21.0938 30.1875 23Z" fill="#67B794"/>
</svg>
