<svg width="46" height="46" viewBox="0 0 46 46" fill="none" xmlns="http://www.w3.org/2000/svg">
<path d="M38.4265 22.5439L18.3015 44.1064C18.0882 44.334 17.8067 44.4861 17.4994 44.5397C17.1922 44.5932 16.8758 44.5454 16.5981 44.4034C16.3204 44.2614 16.0964 44.033 15.9599 43.7525C15.8235 43.472 15.7819 43.1548 15.8416 42.8486L18.4758 29.6721L8.1204 25.7837C7.898 25.7005 7.69967 25.5635 7.54314 25.385C7.3866 25.2064 7.27673 24.9919 7.22334 24.7605C7.16994 24.5292 7.1747 24.2882 7.23717 24.0591C7.29964 23.83 7.41788 23.62 7.58133 23.4478L27.7063 1.88526C27.9196 1.65766 28.2011 1.5056 28.5084 1.45203C28.8157 1.39846 29.132 1.44628 29.4097 1.58828C29.6874 1.73027 29.9114 1.95874 30.0479 2.23921C30.1844 2.51968 30.2259 2.83692 30.1663 3.14307L27.5248 16.3339L37.8802 20.217C38.101 20.3007 38.2977 20.4376 38.453 20.6154C38.6084 20.7932 38.7175 21.0066 38.7708 21.2366C38.8241 21.4666 38.8199 21.7062 38.7586 21.9342C38.6973 22.1622 38.5807 22.3716 38.4193 22.5439H38.4265Z" fill="#E07171"/>
</svg>
