<svg width="46" height="46" viewBox="0 0 46 46" fill="none" xmlns="http://www.w3.org/2000/svg">
<path d="M37.375 7.1875H8.625C7.8625 7.1875 7.13123 7.4904 6.59207 8.02957C6.0529 8.56873 5.75 9.3 5.75 10.0625V20.125C5.75 29.5981 10.3356 35.3391 14.1827 38.4873C18.3263 41.8762 22.4484 43.028 22.628 43.0747C22.8751 43.1419 23.1357 43.1419 23.3827 43.0747C23.5624 43.028 27.6791 41.8762 31.828 38.4873C35.6644 35.3391 40.25 29.5981 40.25 20.125V10.0625C40.25 9.3 39.9471 8.56873 39.4079 8.02957C38.8688 7.4904 38.1375 7.1875 37.375 7.1875ZM23 40.1817C20.4578 39.294 18.0908 37.9676 16.0066 36.2627C11.8288 32.8451 9.41023 28.3906 8.78672 23H23V10.0625H37.375V20.125C37.3755 21.0856 37.3216 22.0455 37.2133 23H23V40.1817Z" fill="#5397FF"/>
</svg>
