<svg width="18" height="18" viewBox="0 0 18 18" fill="none" xmlns="http://www.w3.org/2000/svg">
<path d="M15.1875 2.8125H2.8125C2.51413 2.8125 2.22798 2.93103 2.017 3.142C1.80603 3.35298 1.6875 3.63913 1.6875 3.9375V14.0625C1.6875 14.3609 1.80603 14.647 2.017 14.858C2.22798 15.069 2.51413 15.1875 2.8125 15.1875H15.1875C15.4859 15.1875 15.772 15.069 15.983 14.858C16.194 14.647 16.3125 14.3609 16.3125 14.0625V3.9375C16.3125 3.63913 16.194 3.35298 15.983 3.142C15.772 2.93103 15.4859 2.8125 15.1875 2.8125ZM6.75 8.4375C6.75 7.99249 6.88196 7.55748 7.12919 7.18747C7.37643 6.81746 7.72783 6.52907 8.13896 6.35877C8.5501 6.18847 9.0025 6.14392 9.43895 6.23073C9.87541 6.31755 10.2763 6.53184 10.591 6.84651C10.9057 7.16118 11.12 7.56209 11.2068 7.99855C11.2936 8.435 11.249 8.8874 11.0787 9.29854C10.9084 9.70967 10.62 10.0611 10.25 10.3083C9.88002 10.5555 9.44501 10.6875 9 10.6875C8.40326 10.6875 7.83097 10.4504 7.40901 10.0285C6.98705 9.60653 6.75 9.03424 6.75 8.4375ZM5.10258 14.0625C5.49749 13.3783 6.06558 12.8101 6.74973 12.415C7.43388 12.0199 8.20998 11.812 9 11.812C9.79002 11.812 10.5661 12.0199 11.2503 12.415C11.9344 12.8101 12.5025 13.3783 12.8974 14.0625H5.10258ZM15.1875 14.0625H14.156C13.5623 12.7065 12.4588 11.6387 11.0841 11.0897C11.6362 10.6562 12.0395 10.0613 12.2377 9.38789C12.4359 8.71446 12.4192 7.99598 12.1898 7.33249C11.9605 6.66901 11.53 6.09355 10.9583 5.68623C10.3865 5.27891 9.702 5.06001 9 5.06001C8.298 5.06001 7.61348 5.27891 7.04173 5.68623C6.46999 6.09355 6.03948 6.66901 5.81016 7.33249C5.58084 7.99598 5.56411 8.71446 5.76231 9.38789C5.96051 10.0613 6.36377 10.6562 6.91594 11.0897C5.54122 11.6387 4.43774 12.7065 3.84398 14.0625H2.8125V3.9375H15.1875V14.0625Z" fill="black"/>
</svg>
