<svg width="18" height="18" viewBox="0 0 18 18" fill="none" xmlns="http://www.w3.org/2000/svg">
<path d="M13.5 6.75C13.9722 6.39582 14.321 5.90204 14.497 5.3386C14.6731 4.77515 14.6673 4.17061 14.4806 3.61061C14.294 3.05061 13.9358 2.56353 13.457 2.21838C12.9781 1.87323 12.4028 1.6875 11.8125 1.6875H6.74997C6.15968 1.6875 5.58435 1.87323 5.10548 2.21838C4.62661 2.56353 4.26847 3.05061 4.0818 3.61061C3.89514 4.17061 3.8894 4.77515 4.06541 5.3386C4.24141 5.90204 4.59024 6.39582 5.06247 6.75C4.70492 7.01796 4.41636 7.36725 4.22068 7.76894C4.02501 8.17064 3.92785 8.61317 3.93727 9.05989C3.94669 9.50661 4.0624 9.94465 4.27483 10.3377C4.48725 10.7308 4.79028 11.0677 5.1588 11.3203C4.73963 11.639 4.40873 12.0594 4.19744 12.5417C3.98616 13.0241 3.90148 13.5523 3.95142 14.0765C4.00137 14.6007 4.18428 15.1035 4.48284 15.5372C4.78141 15.971 5.18574 16.3214 5.65756 16.5552C6.12938 16.789 6.65306 16.8985 7.17903 16.8733C7.705 16.8482 8.21584 16.6892 8.66319 16.4114C9.11054 16.1336 9.47959 15.7463 9.73539 15.286C9.9912 14.8258 10.1253 14.3078 10.125 13.7812V11.25C10.7217 11.6976 11.4718 11.8897 12.2102 11.7842C12.9486 11.6787 13.6149 11.2842 14.0625 10.6875C14.51 10.0908 14.7022 9.34068 14.5967 8.60225C14.4912 7.86383 14.0967 7.19755 13.5 6.75ZM13.5 4.5C13.5 4.94755 13.3222 5.37678 13.0057 5.69324C12.6892 6.00971 12.26 6.1875 11.8125 6.1875H10.125V2.8125H11.8125C12.26 2.8125 12.6892 2.99029 13.0057 3.30676C13.3222 3.62322 13.5 4.05245 13.5 4.5ZM5.06247 4.5C5.06247 4.05245 5.24026 3.62322 5.55673 3.30676C5.8732 2.99029 6.30242 2.8125 6.74997 2.8125H8.99997V6.1875H6.74997C6.30242 6.1875 5.8732 6.00971 5.55673 5.69324C5.24026 5.37678 5.06247 4.94755 5.06247 4.5ZM6.74997 10.6875C6.30242 10.6875 5.8732 10.5097 5.55673 10.1932C5.24026 9.87678 5.06247 9.44755 5.06247 9C5.06247 8.55245 5.24026 8.12322 5.55673 7.80676C5.8732 7.49029 6.30242 7.3125 6.74997 7.3125H8.99997V10.6875H6.74997ZM8.99997 13.7812C8.99997 14.1706 8.88451 14.5513 8.66818 14.875C8.45185 15.1988 8.14437 15.4511 7.78463 15.6001C7.42489 15.7491 7.02904 15.7881 6.64714 15.7122C6.26524 15.6362 5.91444 15.4487 5.63911 15.1734C5.36377 14.898 5.17627 14.5472 5.1003 14.1653C5.02434 13.7834 5.06333 13.3876 5.21234 13.0278C5.36135 12.6681 5.61369 12.3606 5.93745 12.1443C6.2612 11.928 6.64184 11.8125 7.03122 11.8125H8.99997V13.7812ZM11.8125 10.6875C11.4787 10.6875 11.1525 10.5885 10.875 10.4031C10.5974 10.2177 10.3812 9.95413 10.2534 9.64578C10.1257 9.33743 10.0923 8.99813 10.1574 8.67078C10.2225 8.34344 10.3832 8.04276 10.6192 7.80676C10.8552 7.57076 11.1559 7.41004 11.4833 7.34492C11.8106 7.27981 12.1499 7.31323 12.4583 7.44095C12.7666 7.56868 13.0302 7.78497 13.2156 8.06248C13.401 8.33998 13.5 8.66624 13.5 9C13.5 9.44755 13.3222 9.87678 13.0057 10.1932C12.6892 10.5097 12.26 10.6875 11.8125 10.6875Z" fill="black"/>
</svg>
