<svg width="18" height="18" viewBox="0 0 18 18" fill="none" xmlns="http://www.w3.org/2000/svg">
<path d="M15.75 5.25V12.75C15.75 14.4068 14.4068 15.75 12.75 15.75H5.25C3.59314 15.75 2.25 14.4068 2.25 12.75V5.25C2.25 3.59314 3.59314 2.25 5.25 2.25H12.75C14.4068 2.25 15.75 3.59314 15.75 5.25Z" stroke="black" stroke-linecap="round" stroke-linejoin="round"/>
<path d="M5.25 6L8.25 12M5.25 12L8.25 6" stroke="black" stroke-linecap="round" stroke-linejoin="round"/>
<path d="M12.75 9V11.55C12.75 11.7985 12.5485 12 12.3 12H11.25C10.4216 12 9.75 11.3284 9.75 10.5C9.75 9.67155 10.4216 9 11.25 9H12.75ZM12.75 9V6.75" stroke="black" stroke-linecap="round" stroke-linejoin="round"/>
</svg>
