<svg width="18" height="18" viewBox="0 0 18 18" fill="none" xmlns="http://www.w3.org/2000/svg">
<path d="M16.3125 2.25C16.3125 2.10082 16.2532 1.95774 16.1477 1.85225C16.0423 1.74676 15.8992 1.6875 15.75 1.6875C12.6506 1.6875 9.47039 5.18273 7.70414 7.49742C7.07335 7.30424 6.40603 7.26168 5.75581 7.37316C5.10558 7.48465 4.49056 7.74708 3.96015 8.13936C3.42974 8.53165 2.99873 9.04286 2.70172 9.63194C2.40471 10.221 2.25 10.8715 2.25 11.5312C2.25 13.7025 0.876094 14.6763 0.810703 14.7213C0.710922 14.7887 0.635392 14.8863 0.595221 14.9998C0.55505 15.1133 0.552357 15.2367 0.587538 15.3519C0.622719 15.467 0.693917 15.5678 0.790664 15.6395C0.887411 15.7112 1.0046 15.7499 1.125 15.75H6.46875C7.12846 15.75 7.77899 15.5953 8.36806 15.2983C8.95714 15.0013 9.46835 14.5703 9.86064 14.0398C10.2529 13.5094 10.5153 12.8944 10.6268 12.2442C10.7383 11.594 10.6958 10.9267 10.5026 10.2959C12.818 8.52961 16.3125 5.34938 16.3125 2.25ZM6.46875 14.625H2.43492C2.90953 13.9507 3.375 12.9319 3.375 11.5312C3.375 10.9194 3.55645 10.3212 3.89639 9.81246C4.23634 9.30369 4.71951 8.90716 5.28482 8.673C5.85013 8.43884 6.47218 8.37757 7.07231 8.49695C7.67244 8.61632 8.22369 8.91097 8.65636 9.34364C9.08903 9.77631 9.38368 10.3276 9.50305 10.9277C9.62243 11.5278 9.56116 12.1499 9.327 12.7152C9.09284 13.2805 8.69631 13.7637 8.18754 14.1036C7.67878 14.4436 7.08064 14.625 6.46875 14.625ZM8.74828 7.98398C8.98922 7.6718 9.2257 7.37766 9.45773 7.10156C10.0257 7.48526 10.5147 7.97433 10.8984 8.54227C10.6219 8.77383 10.3277 9.01031 10.016 9.25172C9.68823 8.74393 9.25607 8.31177 8.74828 7.98398ZM11.7506 7.79555C11.326 7.19634 10.803 6.67333 10.2037 6.24867C12.4383 3.82078 14.1237 3.08461 15.1186 2.88C14.9182 3.87562 14.1785 5.56102 11.7506 7.79555Z" fill="black"/>
</svg>
