<svg width="18" height="18" viewBox="0 0 18 18" fill="none" xmlns="http://www.w3.org/2000/svg">
<path d="M15.75 5.25V12.75C15.75 14.4068 14.4068 15.75 12.75 15.75H5.25C3.59314 15.75 2.25 14.4068 2.25 12.75V5.25C2.25 3.59314 3.59314 2.25 5.25 2.25H12.75C14.4068 2.25 15.75 3.59314 15.75 5.25Z" stroke="black" stroke-linecap="round" stroke-linejoin="round"/>
<path d="M5.25 12V9M5.25 9V6H6.75C7.57845 6 8.25 6.67157 8.25 7.5C8.25 8.32845 7.57845 9 6.75 9H5.25Z" stroke="black" stroke-linecap="round" stroke-linejoin="round"/>
<path d="M12.75 8.25C12.5202 7.79032 12.0504 7.5 11.5365 7.5H11.25C10.6287 7.5 10.125 8.0037 10.125 8.625C10.125 9.2463 10.6287 9.75 11.25 9.75H11.625C12.2463 9.75 12.75 10.2537 12.75 10.875C12.75 11.4963 12.2463 12 11.625 12H11.3385C10.8246 12 10.3548 11.7097 10.125 11.25" stroke="black" stroke-linecap="round" stroke-linejoin="round"/>
</svg>
