<svg width="18" height="18" viewBox="0 0 18 18" fill="none" xmlns="http://www.w3.org/2000/svg">
<path d="M15.1875 3.9375H12.375V3.375C12.375 2.92745 12.1972 2.49822 11.8807 2.18176C11.5643 1.86529 11.1351 1.6875 10.6875 1.6875H7.3125C6.86495 1.6875 6.43572 1.86529 6.11926 2.18176C5.80279 2.49822 5.625 2.92745 5.625 3.375V3.9375H2.8125C2.51413 3.9375 2.22798 4.05603 2.017 4.267C1.80603 4.47798 1.6875 4.76413 1.6875 5.0625V14.0625C1.6875 14.3609 1.80603 14.647 2.017 14.858C2.22798 15.069 2.51413 15.1875 2.8125 15.1875H15.1875C15.4859 15.1875 15.772 15.069 15.983 14.858C16.194 14.647 16.3125 14.3609 16.3125 14.0625V5.0625C16.3125 4.76413 16.194 4.47798 15.983 4.267C15.772 4.05603 15.4859 3.9375 15.1875 3.9375ZM6.75 3.375C6.75 3.22582 6.80926 3.08274 6.91475 2.97725C7.02024 2.87176 7.16332 2.8125 7.3125 2.8125H10.6875C10.8367 2.8125 10.9798 2.87176 11.0852 2.97725C11.1907 3.08274 11.25 3.22582 11.25 3.375V3.9375H6.75V3.375ZM15.1875 5.0625V7.9882C13.2889 9.02164 11.1616 9.56289 9 9.5625C6.83846 9.56289 4.71123 9.0219 2.8125 7.98891V5.0625H15.1875ZM15.1875 14.0625H2.8125V9.25594C4.73901 10.1983 6.85537 10.6879 9 10.6875C11.1447 10.6875 13.261 10.1977 15.1875 9.25523V14.0625ZM7.3125 7.875C7.3125 7.72582 7.37176 7.58274 7.47725 7.47725C7.58274 7.37176 7.72582 7.3125 7.875 7.3125H10.125C10.2742 7.3125 10.4173 7.37176 10.5227 7.47725C10.6282 7.58274 10.6875 7.72582 10.6875 7.875C10.6875 8.02418 10.6282 8.16726 10.5227 8.27275C10.4173 8.37824 10.2742 8.4375 10.125 8.4375H7.875C7.72582 8.4375 7.58274 8.37824 7.47725 8.27275C7.37176 8.16726 7.3125 8.02418 7.3125 7.875Z" fill="black"/>
</svg>
