<svg width="24" height="24" viewBox="0 0 24 24" fill="none" xmlns="http://www.w3.org/2000/svg">
<g filter="url(#filter0_d_4_4)">
<path d="M7.60439 19.2571L3.04581 3.26553C2.81043 2.43981 3.66805 1.72678 4.44788 2.09985L19.5506 9.32491C20.3536 9.70907 20.2932 10.8616 19.4546 11.1588L13.2432 13.3596C13.0176 13.4395 12.8284 13.5968 12.7098 13.8031L9.44381 19.4818C9.00282 20.2486 7.84677 20.1073 7.60439 19.2571Z" fill="black"/>
<path d="M2.56279 3.40011C2.20972 2.16154 3.49566 1.09245 4.66538 1.652L19.7685 8.87711C20.9727 9.45348 20.8819 11.1816 19.6239 11.6273L13.4132 13.8282C13.3006 13.8681 13.206 13.9469 13.1466 14.0498L9.87992 19.7286C9.21849 20.8786 7.48514 20.6671 7.12135 19.392L2.56279 3.40011Z" stroke="#D9D9D9"/>
</g>
<defs>
<filter id="filter0_d_4_4" x="0" y="0" width="23.1241" height="23.9793" filterUnits="userSpaceOnUse" color-interpolation-filters="sRGB">
<feFlood flood-opacity="0" result="BackgroundImageFix"/>
<feColorMatrix in="SourceAlpha" type="matrix" values="0 0 0 0 0 0 0 0 0 0 0 0 0 0 0 0 0 0 127 0" result="hardAlpha"/>
<feOffset dy="1"/>
<feGaussianBlur stdDeviation="1"/>
<feComposite in2="hardAlpha" operator="out"/>
<feColorMatrix type="matrix" values="0 0 0 0 0 0 0 0 0 0 0 0 0 0 0 0 0 0 0.08 0"/>
<feBlend mode="normal" in2="BackgroundImageFix" result="effect1_dropShadow_4_4"/>
<feBlend mode="normal" in="SourceGraphic" in2="effect1_dropShadow_4_4" result="shape"/>
</filter>
</defs>
</svg>
