<svg width="30" height="30" viewBox="0 0 30 30" fill="none" xmlns="http://www.w3.org/2000/svg">
<path d="M27.8906 11.25C27.8906 11.4365 27.8165 11.6153 27.6847 11.7472C27.5528 11.879 27.374 11.9531 27.1875 11.9531H25.0781V14.0625C25.0781 14.249 25.004 14.4278 24.8722 14.5597C24.7403 14.6915 24.5615 14.7656 24.375 14.7656C24.1885 14.7656 24.0097 14.6915 23.8778 14.5597C23.7459 14.4278 23.6719 14.249 23.6719 14.0625V11.9531H21.5625C21.376 11.9531 21.1972 11.879 21.0653 11.7472C20.9334 11.6153 20.8594 11.4365 20.8594 11.25C20.8594 11.0635 20.9334 10.8847 21.0653 10.7528C21.1972 10.621 21.376 10.5469 21.5625 10.5469H23.6719V8.4375C23.6719 8.25102 23.7459 8.07218 23.8778 7.94032C24.0097 7.80845 24.1885 7.73438 24.375 7.73438C24.5615 7.73438 24.7403 7.80845 24.8722 7.94032C25.004 8.07218 25.0781 8.25102 25.0781 8.4375V10.5469H27.1875C27.374 10.5469 27.5528 10.621 27.6847 10.7528C27.8165 10.8847 27.8906 11.0635 27.8906 11.25ZM16.875 6.32812H18.0469V7.5C18.0469 7.68648 18.1209 7.86532 18.2528 7.99718C18.3847 8.12905 18.5635 8.20312 18.75 8.20312C18.9365 8.20312 19.1153 8.12905 19.2472 7.99718C19.379 7.86532 19.4531 7.68648 19.4531 7.5V6.32812H20.625C20.8115 6.32812 20.9903 6.25405 21.1222 6.12218C21.254 5.99032 21.3281 5.81148 21.3281 5.625C21.3281 5.43852 21.254 5.25968 21.1222 5.12782C20.9903 4.99595 20.8115 4.92188 20.625 4.92188H19.4531V3.75C19.4531 3.56352 19.379 3.38468 19.2472 3.25282C19.1153 3.12095 18.9365 3.04688 18.75 3.04688C18.5635 3.04688 18.3847 3.12095 18.2528 3.25282C18.1209 3.38468 18.0469 3.56352 18.0469 3.75V4.92188H16.875C16.6885 4.92188 16.5097 4.99595 16.3778 5.12782C16.2459 5.25968 16.1719 5.43852 16.1719 5.625C16.1719 5.81148 16.2459 5.99032 16.3778 6.12218C16.5097 6.25405 16.6885 6.32812 16.875 6.32812ZM25.2246 18.0797C25.3064 18.175 25.3612 18.2905 25.3832 18.4141C25.4053 18.5378 25.3938 18.6651 25.35 18.7828C24.7137 20.5205 23.6499 22.07 22.2567 23.2881C20.8636 24.5061 19.186 25.3536 17.3789 25.7523C15.5718 26.1509 13.6934 26.0879 11.9171 25.5689C10.1408 25.05 8.52379 24.092 7.21547 22.7832C5.90714 21.4744 4.94961 19.8572 4.43128 18.0807C3.91295 16.3042 3.85053 14.4257 4.24976 12.6188C4.649 10.8118 5.49704 9.13449 6.71559 7.74175C7.93414 6.34902 9.48392 5.28571 11.2219 4.65C11.3389 4.60742 11.4651 4.59668 11.5876 4.61889C11.7102 4.64109 11.8246 4.69544 11.9193 4.77637C12.0139 4.8573 12.0853 4.96192 12.1263 5.07952C12.1672 5.19712 12.1762 5.32349 12.1523 5.4457C11.851 6.97501 11.892 8.55206 12.2723 10.0637C12.6526 11.5753 13.3629 12.9839 14.352 14.1885C15.3412 15.3932 16.5848 16.3638 17.9936 17.0309C19.4023 17.698 20.9413 18.045 22.5 18.0469C23.1896 18.0471 23.8776 17.9804 24.5543 17.8477C24.6766 17.8234 24.8031 17.8322 24.9208 17.8729C25.0386 17.9137 25.1435 17.9851 25.2246 18.0797ZM23.5406 19.4086C23.1953 19.4383 22.8484 19.4531 22.5 19.4531C19.331 19.4494 16.2928 18.1889 14.052 15.948C11.8111 13.7072 10.5506 10.669 10.5469 7.5C10.5469 7.15234 10.5617 6.80547 10.5914 6.45937C9.24859 7.15361 8.08851 8.15485 7.20542 9.38174C6.32234 10.6086 5.74115 12.0265 5.5091 13.5203C5.27705 15.014 5.40067 16.5414 5.86992 17.9784C6.33918 19.4154 7.14082 20.7214 8.20972 21.7903C9.27862 22.8592 10.5846 23.6608 12.0216 24.1301C13.4586 24.5993 14.986 24.7229 16.4797 24.4909C17.9734 24.2588 19.3914 23.6777 20.6182 22.7946C21.8451 21.9115 22.8464 20.7514 23.5406 19.4086Z" fill="white"/>
</svg>
