<svg width="30" height="30" viewBox="0 0 30 30" fill="none" xmlns="http://www.w3.org/2000/svg">
<path d="M24.375 3.98438H21.3281V2.8125C21.3281 2.62602 21.254 2.44718 21.1222 2.31532C20.9903 2.18345 20.8115 2.10938 20.625 2.10938C20.4385 2.10938 20.2597 2.18345 20.1278 2.31532C19.996 2.44718 19.9219 2.62602 19.9219 2.8125V3.98438H10.0781V2.8125C10.0781 2.62602 10.004 2.44718 9.87218 2.31532C9.74032 2.18345 9.56148 2.10938 9.375 2.10938C9.18852 2.10938 9.00968 2.18345 8.87782 2.31532C8.74595 2.44718 8.67188 2.62602 8.67188 2.8125V3.98438H5.625C5.18988 3.98438 4.77258 4.15723 4.4649 4.4649C4.15723 4.77258 3.98438 5.18988 3.98438 5.625V24.375C3.98438 24.8101 4.15723 25.2274 4.4649 25.5351C4.77258 25.8428 5.18988 26.0156 5.625 26.0156H24.375C24.8101 26.0156 25.2274 25.8428 25.5351 25.5351C25.8428 25.2274 26.0156 24.8101 26.0156 24.375V5.625C26.0156 5.18988 25.8428 4.77258 25.5351 4.4649C25.2274 4.15723 24.8101 3.98438 24.375 3.98438ZM5.625 5.39062H8.67188V6.5625C8.67188 6.74898 8.74595 6.92782 8.87782 7.05968C9.00968 7.19155 9.18852 7.26562 9.375 7.26562C9.56148 7.26562 9.74032 7.19155 9.87218 7.05968C10.004 6.92782 10.0781 6.74898 10.0781 6.5625V5.39062H19.9219V6.5625C19.9219 6.74898 19.996 6.92782 20.1278 7.05968C20.2597 7.19155 20.4385 7.26562 20.625 7.26562C20.8115 7.26562 20.9903 7.19155 21.1222 7.05968C21.254 6.92782 21.3281 6.74898 21.3281 6.5625V5.39062H24.375C24.4372 5.39062 24.4968 5.41532 24.5407 5.45927C24.5847 5.50323 24.6094 5.56284 24.6094 5.625V9.60938H5.39062V5.625C5.39062 5.56284 5.41532 5.50323 5.45927 5.45927C5.50323 5.41532 5.56284 5.39062 5.625 5.39062ZM24.375 24.6094H5.625C5.56284 24.6094 5.50323 24.5847 5.45927 24.5407C5.41532 24.4968 5.39062 24.4372 5.39062 24.375V11.0156H24.6094V24.375C24.6094 24.4372 24.5847 24.4968 24.5407 24.5407C24.4968 24.5847 24.4372 24.6094 24.375 24.6094Z" fill="#231F20"/>
</svg>
