<svg width="30" height="30" viewBox="0 0 30 30" fill="none" xmlns="http://www.w3.org/2000/svg">
<path d="M27.8907 10.3336C27.8465 11.9063 27.2005 13.4021 26.086 14.5125L22.0138 18.5848C21.4422 19.1594 20.7622 19.6149 20.0133 19.9249C19.2644 20.2349 18.4614 20.3932 17.6509 20.3907H17.645C16.821 20.39 16.0054 20.2243 15.2465 19.9032C14.4876 19.5821 13.8007 19.1122 13.2264 18.5212C12.6521 17.9302 12.2021 17.2302 11.9029 16.4623C11.6037 15.6945 11.4615 14.8745 11.4845 14.0508C11.4894 13.8676 11.5656 13.6935 11.6969 13.5657C11.8283 13.4379 12.0043 13.3664 12.1876 13.3664H12.2075C12.3938 13.3716 12.5704 13.4506 12.6985 13.586C12.8266 13.7213 12.8958 13.902 12.8907 14.0883C12.8725 14.7244 12.9821 15.3576 13.2129 15.9506C13.4436 16.5436 13.791 17.0843 14.2343 17.5408C14.6777 17.9972 15.208 18.3602 15.7941 18.6081C16.3801 18.8561 17.0099 18.984 17.6462 18.9844C18.2717 18.9859 18.8913 18.8634 19.4691 18.6241C20.047 18.3847 20.5717 18.0332 21.013 17.5899L25.0853 13.5188C25.9453 12.6196 26.4193 11.4195 26.4056 10.1753C26.392 8.93116 25.8918 7.74175 25.0122 6.86169C24.1326 5.98163 22.9435 5.48086 21.6993 5.46657C20.4551 5.45227 19.2548 5.92557 18.3552 6.78518L17.0661 8.07425C16.9342 8.20618 16.7552 8.2803 16.5687 8.2803C16.3821 8.2803 16.2031 8.20618 16.0712 8.07425C15.9393 7.94231 15.8651 7.76337 15.8651 7.57678C15.8651 7.3902 15.9393 7.21126 16.0712 7.07932L17.3603 5.79026C17.9329 5.21741 18.6128 4.76299 19.3611 4.45295C20.1094 4.14291 20.9114 3.98334 21.7214 3.98334C22.5314 3.98334 23.3334 4.14291 24.0817 4.45295C24.83 4.76299 25.5099 5.21741 26.0825 5.79026C26.6766 6.38511 27.1433 7.09473 27.4542 7.87585C27.7651 8.65697 27.9136 9.49322 27.8907 10.3336ZM12.9353 21.9235L11.6462 23.2125C11.2046 23.6572 10.679 24.0097 10.1001 24.2495C9.52108 24.4893 8.90021 24.6116 8.27353 24.6094C7.33212 24.6087 6.41204 24.329 5.62957 23.8055C4.8471 23.2821 4.23737 22.5384 3.87743 21.6685C3.51748 20.7987 3.42349 19.8416 3.60732 18.9183C3.79116 17.995 4.24457 17.1469 4.91025 16.4813L8.979 12.4102C9.6527 11.7347 10.5138 11.2772 11.4506 11.097C12.3874 10.9168 13.3567 11.0221 14.2329 11.3993C15.1092 11.7766 15.8519 12.4083 16.3648 13.2127C16.8777 14.0171 17.1371 14.957 17.1095 15.9106C17.1044 16.0969 17.1736 16.2776 17.3017 16.4129C17.4298 16.5483 17.6064 16.6272 17.7927 16.6324H17.8126C17.9959 16.6325 18.1719 16.561 18.3033 16.4332C18.4346 16.3053 18.5108 16.1313 18.5157 15.9481C18.5507 14.7133 18.2142 13.4965 17.5496 12.4553C16.8851 11.4141 15.9232 10.5963 14.7886 10.1081C13.654 9.61979 12.3989 9.48346 11.1859 9.71674C9.97285 9.95002 8.85784 10.5421 7.98525 11.4164L3.91181 15.4875C3.04971 16.3499 2.46257 17.4484 2.22458 18.6443C1.98658 19.8402 2.10842 21.0798 2.5747 22.2065C3.04098 23.3332 3.83076 24.2964 4.84426 24.9744C5.85776 25.6524 7.04948 26.0147 8.26885 26.0157C9.07927 26.018 9.88211 25.8595 10.6308 25.5493C11.3796 25.2392 12.0593 24.7834 12.6306 24.2086L13.9196 22.9196C13.9858 22.8544 14.0383 22.7768 14.0743 22.6913C14.1103 22.6057 14.129 22.5139 14.1293 22.4211C14.1296 22.3283 14.1116 22.2363 14.0762 22.1505C14.0408 22.0647 13.9888 21.9868 13.9231 21.9212C13.8574 21.8556 13.7794 21.8036 13.6936 21.7683C13.6077 21.733 13.5157 21.7151 13.4229 21.7155C13.3301 21.716 13.2383 21.7348 13.1528 21.7709C13.0673 21.8069 12.9898 21.8596 12.9247 21.9258L12.9353 21.9235Z" fill="black"/>
</svg>
