<svg width="46" height="46" viewBox="0 0 46 46" fill="none" xmlns="http://www.w3.org/2000/svg">
<path d="M25.875 17.25V14.375H23C22.6188 14.375 22.2531 14.5265 21.9835 14.796C21.714 15.0656 21.5625 15.4313 21.5625 15.8125V30.1875C21.5625 30.5687 21.714 30.9344 21.9835 31.204C22.2531 31.4736 22.6188 31.625 23 31.625H25.875V28.75C25.875 27.9875 26.1779 27.2562 26.7171 26.7171C27.2562 26.1779 27.9875 25.875 28.75 25.875H37.375C38.1375 25.875 38.8688 26.1779 39.4079 26.7171C39.9471 27.2562 40.25 27.9875 40.25 28.75V37.375C40.25 38.1375 39.9471 38.8688 39.4079 39.4079C38.8688 39.9471 38.1375 40.25 37.375 40.25H28.75C27.9875 40.25 27.2562 39.9471 26.7171 39.4079C26.1779 38.8688 25.875 38.1375 25.875 37.375V34.5H23C21.8563 34.5 20.7594 34.0456 19.9506 33.2369C19.1419 32.4281 18.6875 31.3312 18.6875 30.1875V24.4375H12.9375V25.875C12.9375 26.6375 12.6346 27.3688 12.0954 27.9079C11.5563 28.4471 10.825 28.75 10.0625 28.75H4.3125C3.55 28.75 2.81874 28.4471 2.27957 27.9079C1.7404 27.3688 1.4375 26.6375 1.4375 25.875V20.125C1.4375 19.3625 1.7404 18.6312 2.27957 18.0921C2.81874 17.5529 3.55 17.25 4.3125 17.25H10.0625C10.825 17.25 11.5563 17.5529 12.0954 18.0921C12.6346 18.6312 12.9375 19.3625 12.9375 20.125V21.5625H18.6875V15.8125C18.6875 14.6688 19.1419 13.5719 19.9506 12.7631C20.7594 11.9544 21.8563 11.5 23 11.5H25.875V8.625C25.875 7.8625 26.1779 7.13123 26.7171 6.59207C27.2562 6.0529 27.9875 5.75 28.75 5.75H37.375C38.1375 5.75 38.8688 6.0529 39.4079 6.59207C39.9471 7.13123 40.25 7.8625 40.25 8.625V17.25C40.25 18.0125 39.9471 18.7438 39.4079 19.2829C38.8688 19.8221 38.1375 20.125 37.375 20.125H28.75C27.9875 20.125 27.2562 19.8221 26.7171 19.2829C26.1779 18.7438 25.875 18.0125 25.875 17.25Z" fill="#5397FF"/>
</svg>
