<svg width="46" height="46" viewBox="0 0 46 46" fill="none" xmlns="http://www.w3.org/2000/svg">
<path d="M40.5842 18.4755C39.9068 17.7675 39.206 17.038 38.9419 16.3965C38.6975 15.8089 38.6831 14.835 38.6688 13.8916C38.6418 12.1379 38.613 10.1505 37.2313 8.76875C35.8495 7.38695 33.8621 7.3582 32.1084 7.33125C31.165 7.31687 30.1911 7.3025 29.6035 7.05812C28.9638 6.79398 28.2325 6.0932 27.5245 5.41578C26.2847 4.22445 24.8759 2.875 23 2.875C21.1241 2.875 19.7171 4.22445 18.4755 5.41578C17.7675 6.0932 17.038 6.79398 16.3965 7.05812C15.8125 7.3025 14.835 7.31687 13.8916 7.33125C12.1379 7.3582 10.1505 7.38695 8.76875 8.76875C7.38695 10.1505 7.36719 12.1379 7.33125 13.8916C7.31687 14.835 7.3025 15.8089 7.05812 16.3965C6.79398 17.0362 6.0932 17.7675 5.41578 18.4755C4.22445 19.7153 2.875 21.1241 2.875 23C2.875 24.8759 4.22445 26.2829 5.41578 27.5245C6.0932 28.2325 6.79398 28.962 7.05812 29.6035C7.3025 30.1911 7.31687 31.165 7.33125 32.1084C7.3582 33.8621 7.38695 35.8495 8.76875 37.2313C10.1505 38.613 12.1379 38.6418 13.8916 38.6688C14.835 38.6831 15.8089 38.6975 16.3965 38.9419C17.0362 39.206 17.7675 39.9068 18.4755 40.5842C19.7153 41.7755 21.1241 43.125 23 43.125C24.8759 43.125 26.2829 41.7755 27.5245 40.5842C28.2325 39.9068 28.962 39.206 29.6035 38.9419C30.1911 38.6975 31.165 38.6831 32.1084 38.6688C33.8621 38.6418 35.8495 38.613 37.2313 37.2313C38.613 35.8495 38.6418 33.8621 38.6688 32.1084C38.6831 31.165 38.6975 30.1911 38.9419 29.6035C39.206 28.9638 39.9068 28.2325 40.5842 27.5245C41.7755 26.2847 43.125 24.8759 43.125 23C43.125 21.1241 41.7755 19.7171 40.5842 18.4755ZM23 34.5C22.5735 34.5 22.1566 34.3735 21.8021 34.1366C21.4475 33.8997 21.1711 33.5629 21.0079 33.1689C20.8447 32.7749 20.802 32.3414 20.8852 31.9231C20.9684 31.5048 21.1737 31.1206 21.4753 30.8191C21.7769 30.5175 22.1611 30.3121 22.5793 30.2289C22.9976 30.1457 23.4312 30.1884 23.8252 30.3516C24.2192 30.5148 24.5559 30.7912 24.7929 31.1458C25.0298 31.5004 25.1562 31.9173 25.1562 32.3438C25.1562 32.9156 24.9291 33.4641 24.5247 33.8684C24.1203 34.2728 23.5719 34.5 23 34.5ZM24.4375 25.7456V25.875C24.4375 26.2562 24.2861 26.6219 24.0165 26.8915C23.7469 27.1611 23.3812 27.3125 23 27.3125C22.6188 27.3125 22.2531 27.1611 21.9835 26.8915C21.714 26.6219 21.5625 26.2562 21.5625 25.875V24.4375C21.5625 24.0563 21.714 23.6906 21.9835 23.421C22.2531 23.1514 22.6188 23 23 23C25.3773 23 27.3125 21.3828 27.3125 19.4062C27.3125 17.4297 25.3773 15.8125 23 15.8125C20.6227 15.8125 18.6875 17.4297 18.6875 19.4062V20.125C18.6875 20.5062 18.536 20.8719 18.2665 21.1415C17.9969 21.411 17.6312 21.5625 17.25 21.5625C16.8688 21.5625 16.5031 21.411 16.2335 21.1415C15.964 20.8719 15.8125 20.5062 15.8125 20.125V19.4062C15.8125 15.8395 19.0361 12.9375 23 12.9375C26.9639 12.9375 30.1875 15.8395 30.1875 19.4062C30.1875 22.5292 27.715 25.1437 24.4375 25.7456Z" fill="#5397FF"/>
</svg>
