<svg width="46" height="46" viewBox="0 0 46 46" fill="none" xmlns="http://www.w3.org/2000/svg">
<path d="M41.6877 14.3751H35.8371C37.1026 16.5679 37.6092 19.1171 37.2781 21.6272C36.9471 24.1373 35.7969 26.468 34.0061 28.2578C32.4751 29.8192 30.4824 31.2981 28.283 32.6619C28.1454 32.7457 27.9835 32.7808 27.8235 32.7616C27.6635 32.7423 27.5146 32.6699 27.4007 32.5559L21.1404 26.2956C21.0043 26.1594 20.8421 26.0519 20.6636 25.9796C20.4851 25.9072 20.2939 25.8715 20.1013 25.8745C19.9087 25.8776 19.7187 25.9192 19.5425 25.9971C19.3664 26.075 19.2077 26.1875 19.0758 26.3279C18.8221 26.6125 18.6882 26.9841 18.7019 27.3651C18.7156 27.7461 18.876 28.1071 19.1495 28.3728L24.5186 33.7418C24.5988 33.8219 24.6589 33.9198 24.6941 34.0275C24.7292 34.1352 24.7384 34.2497 24.7209 34.3616C24.7034 34.4736 24.6596 34.5798 24.5932 34.6716C24.5268 34.7635 24.4397 34.8383 24.3389 34.89C17.2035 38.5952 9.52363 41.0659 8.40598 41.4145C7.87132 41.6636 7.27299 41.7422 6.69214 41.6396C6.11129 41.5371 5.57604 41.2584 5.15896 40.8413C4.74189 40.4243 4.46319 39.889 4.36067 39.3082C4.25814 38.7273 4.33674 38.129 4.58582 37.5943C5.07637 36.0292 9.79676 21.3739 16.2404 13.633C16.3044 13.5564 16.3837 13.494 16.4732 13.4497C16.5627 13.4055 16.6604 13.3804 16.7601 13.376C16.8599 13.3716 16.9594 13.388 17.0525 13.4242C17.1455 13.4604 17.23 13.5156 17.3005 13.5863L24.8564 21.1439C24.9961 21.2836 25.1632 21.393 25.3471 21.4652C25.531 21.5374 25.7278 21.5709 25.9253 21.5637C26.1227 21.5564 26.3166 21.5086 26.4947 21.423C26.6728 21.3375 26.8314 21.2162 26.9605 21.0667C27.1967 20.7816 27.3168 20.418 27.2968 20.0483C27.2768 19.6786 27.1182 19.3301 26.8527 19.0721L19.4208 11.6403C19.345 11.5648 19.2871 11.4734 19.2511 11.3727C19.2151 11.2719 19.2021 11.1645 19.2129 11.0581C19.2238 10.9517 19.2582 10.849 19.3138 10.7576C19.3693 10.6663 19.4446 10.5884 19.534 10.5298C21.3169 9.35293 23.3923 8.69593 25.5277 8.63245C27.663 8.56898 29.7738 9.10153 31.6234 10.1704V4.3126C31.6229 4.11538 31.6631 3.92017 31.7413 3.73913C31.8195 3.55808 31.9342 3.39507 32.0781 3.26023C32.2221 3.1254 32.3922 3.02163 32.578 2.95537C32.7637 2.88911 32.9612 2.86179 33.1579 2.87511C33.5284 2.90733 33.8728 3.07875 34.1219 3.35483C34.371 3.63091 34.5061 3.99113 34.5002 4.36292V9.46784L39.2332 4.73307C39.3667 4.59952 39.5253 4.49357 39.6998 4.42129C39.8743 4.34901 40.0613 4.31181 40.2502 4.31181C40.4391 4.31181 40.6261 4.34901 40.8006 4.42129C40.9751 4.49357 41.1337 4.59952 41.2672 4.73307C41.4008 4.86663 41.5067 5.02519 41.579 5.19969C41.6513 5.37419 41.6885 5.56122 41.6885 5.7501C41.6885 5.93898 41.6513 6.12602 41.579 6.30052C41.5067 6.47502 41.4008 6.63358 41.2672 6.76714L36.5325 11.5001H41.6374C42.0092 11.4942 42.3694 11.6293 42.6455 11.8784C42.9215 12.1275 43.093 12.4719 43.1252 12.8424C43.1382 13.039 43.1107 13.2362 43.0444 13.4218C42.978 13.6073 42.8742 13.7772 42.7394 13.921C42.6046 14.0647 42.4416 14.1792 42.2607 14.2573C42.0798 14.3354 41.8848 14.3755 41.6877 14.3751Z" fill="#5397FF"/>
</svg>
