<svg width="30" height="30" viewBox="0 0 30 30" fill="none" xmlns="http://www.w3.org/2000/svg">
<path d="M26.8581 24.9609C25.0054 21.7594 22.0968 19.5129 18.7171 18.5601C20.3603 17.7249 21.6742 16.3606 22.4471 14.6872C23.22 13.0138 23.4068 11.1289 22.9773 9.33637C22.5479 7.54385 21.5272 5.9482 20.08 4.80671C18.6327 3.66523 16.8432 3.04443 14.9999 3.04443C13.1567 3.04443 11.3672 3.66523 9.9199 4.80671C8.47263 5.9482 7.452 7.54385 7.02255 9.33637C6.59311 11.1289 6.77989 13.0138 7.55277 14.6872C8.32566 16.3606 9.6396 17.7249 11.2827 18.5601C7.90306 19.5117 4.99446 21.7582 3.14173 24.9609C3.09086 25.0409 3.0567 25.1304 3.0413 25.224C3.02591 25.3176 3.02961 25.4133 3.05217 25.5054C3.07473 25.5975 3.11569 25.6841 3.17259 25.76C3.22948 25.8358 3.30113 25.8994 3.38323 25.9469C3.46533 25.9943 3.55618 26.0247 3.65032 26.0361C3.74446 26.0476 3.83994 26.0398 3.93101 26.0134C4.02209 25.987 4.10688 25.9424 4.18028 25.8824C4.25368 25.8223 4.31418 25.7481 4.35814 25.664C6.60931 21.7746 10.5867 19.4531 14.9999 19.4531C19.4132 19.4531 23.3906 21.7746 25.6417 25.664C25.6857 25.7481 25.7462 25.8223 25.8196 25.8824C25.893 25.9424 25.9778 25.987 26.0688 26.0134C26.1599 26.0398 26.2554 26.0476 26.3495 26.0361C26.4437 26.0247 26.5345 25.9943 26.6166 25.9469C26.6987 25.8994 26.7704 25.8358 26.8273 25.76C26.8842 25.6841 26.9251 25.5975 26.9477 25.5054C26.9703 25.4133 26.9739 25.3176 26.9586 25.224C26.9432 25.1304 26.909 25.0409 26.8581 24.9609ZM8.20306 11.25C8.20306 9.90568 8.60169 8.59158 9.34854 7.47384C10.0954 6.3561 11.1569 5.48492 12.3989 4.97049C13.6408 4.45605 15.0075 4.32145 16.3259 4.5837C17.6444 4.84596 18.8555 5.4933 19.806 6.44386C20.7566 7.39442 21.4039 8.60551 21.6662 9.92397C21.9285 11.2424 21.7939 12.6091 21.2794 13.851C20.765 15.093 19.8938 16.1545 18.7761 16.9014C17.6583 17.6482 16.3442 18.0469 14.9999 18.0469C13.198 18.0447 11.4704 17.3279 10.1962 16.0537C8.92202 14.7795 8.20523 13.052 8.20306 11.25Z" fill="black"/>
</svg>
